<svg width="179" height="96" viewBox="0 0 179 96" fill="none" xmlns="http://www.w3.org/2000/svg">
<path d="M0 83.4656V94.9312H2.35192H4.70384L4.76264 87.5815L4.85083 80.2317L7.79073 86.4349C9.40768 89.8452 10.8482 92.6969 11.0246 92.7263C11.1716 92.7851 11.9948 92.8733 12.7886 92.9615L14.2879 93.0791L15.4345 90.5508C16.0812 89.169 17.463 86.2291 18.5214 84.0536L20.4323 80.0847L20.5205 87.4933L20.5793 94.8724L22.9312 94.99L25.2831 95.0782V83.5832V72.0882L22.3432 72.1176L19.4033 72.1764L16.14 78.9088C14.3467 82.6424 12.7886 85.7587 12.671 85.8763C12.5828 85.9645 10.9658 82.907 9.11369 79.0264L5.7328 72H2.8811H0V83.4656Z" fill="white"/>
<path d="M98.6338 74.4107C98.0164 75.7631 95.6939 80.9079 93.4595 85.8763L89.4319 94.9312H90.696H91.9602L93.0774 92.1383L94.2239 89.3454H100.839H107.453L108.6 92.1383L109.776 94.9312H111.011H112.275L111.511 93.1085C111.128 92.1089 108.865 87.0817 106.542 81.9075C104.22 76.7626 102.309 72.4116 102.309 72.2646C102.309 72.1176 101.721 72 101.015 72H99.7509L98.6338 74.4107ZM103.602 80.5845C105.013 83.8772 106.248 86.7877 106.336 87.0523C106.483 87.5521 106.101 87.5815 101.044 87.5815C98.0458 87.5815 95.5175 87.4639 95.4293 87.3169C95.3411 87.1699 95.8115 85.8175 96.517 84.3182C97.2226 82.7894 98.428 79.9965 99.2217 78.115C100.045 76.2041 100.78 74.6459 100.868 74.6459C100.956 74.6459 102.191 77.3212 103.602 80.5845Z" fill="white"/>
<path d="M76.1728 77.6446C74.1737 77.9386 71.9394 79.1734 70.8222 80.5257C69.6169 81.9663 68.7937 84.3476 68.7937 86.3761C68.7937 90.1686 70.5576 93.0203 73.8503 94.4902C75.4379 95.2252 76.0553 95.3428 78.2014 95.3134C81.1413 95.3134 83.4932 94.549 84.8162 93.1673L85.6393 92.3147L84.4046 91.0505C83.3756 89.9628 83.1404 89.8452 82.67 90.1686C80.6415 91.6385 77.6134 91.9913 75.8495 90.933C75.2909 90.6096 74.5265 89.8746 74.1443 89.316L73.4681 88.3164L74.2913 88.14C74.7323 88.0225 77.7604 87.9343 80.9649 87.9049L86.8153 87.8755L86.6095 85.7587C86.2567 82.0251 84.6986 79.5849 81.8763 78.3208C80.0829 77.4976 78.2896 77.2918 76.1728 77.6446ZM79.6125 81.5253C80.7003 82.0839 81.4059 82.907 81.7293 84.0242L81.9938 84.9356H77.731H73.4681L73.6739 84.2594C74.4383 81.7605 77.4076 80.3787 79.6125 81.5253Z" fill="white"/>
<path d="M34.838 78.1738C30.928 79.7025 28.6642 83.8478 29.4286 88.0812C29.8696 90.3744 30.5752 91.6973 32.1921 93.1085C33.9267 94.6372 36.014 95.3428 38.6599 95.3428C41.7174 95.3428 43.5989 94.6078 45.6275 92.5793C46.9504 91.2563 47.3914 90.5508 47.803 89.1984C49.1553 84.524 46.9504 79.7613 42.7464 78.1738C40.6002 77.38 36.896 77.38 34.838 78.1738ZM41.3646 82.2308C43.2461 83.5832 43.9517 86.9935 42.7464 89.0514C41.9526 90.492 39.9241 91.4915 38.2483 91.3151C35.3672 91.0211 33.6327 88.3164 34.2207 85.1119C34.4559 83.8478 35.6612 82.3484 36.896 81.8193C38.1013 81.2607 40.3062 81.4665 41.3646 82.2308Z" fill="white"/>
<path d="M49.0962 77.968C49.0962 78.0856 52.6829 86.8465 54.8878 92.0795L56.2107 95.2546L58.5921 95.1664L60.944 95.0782L64.2955 86.8465C66.1476 82.3191 67.7351 78.4384 67.8233 78.2326C67.9409 77.968 67.3824 77.8798 65.5302 77.8798H63.0607L60.8264 83.7596L58.6215 89.61L56.3871 83.8184L54.1528 78.0268L51.6245 77.9386C50.2428 77.9092 49.0962 77.9092 49.0962 77.968Z" fill="white"/>
<path d="M119.242 78.4678C115.273 80.026 113.186 84.7298 114.479 89.169C115.126 91.3152 116.978 93.4025 119.154 94.3727C122.182 95.725 126.856 95.0488 128.796 92.9909L129.473 92.2853L128.826 91.6385L128.179 90.9918L127.532 91.6385C125.798 93.2261 122.329 93.6671 120.036 92.5499C117.654 91.4034 116.419 89.1984 116.419 86.0527C116.419 83.789 117.772 81.5841 119.8 80.5257C122.358 79.2322 125.474 79.6144 127.532 81.5253L128.238 82.1427L128.796 81.4371C129.09 81.0549 129.355 80.6433 129.355 80.4963C129.355 80.1141 127.385 78.7324 126.209 78.2914C124.534 77.7034 120.976 77.7916 119.242 78.4678Z" fill="white"/>
<path d="M137.146 78.3502C135.294 78.997 133.883 80.3493 132.854 82.4367C131.972 84.23 131.943 84.4946 132.06 86.9347C132.148 89.0808 132.325 89.757 132.971 90.8742C135.588 95.3428 141.791 96.5482 146.083 93.4319C147.348 92.5205 147.348 92.5205 146.789 91.9619C146.23 91.4034 146.201 91.4034 144.437 92.3147C141.585 93.7847 138.175 93.4907 136.176 91.6091C135.265 90.7566 134.353 88.9632 134.353 88.0225V87.2875H141.262H148.171V85.8763C148.171 85.0826 147.936 83.789 147.671 82.9952C147.054 81.1431 144.672 78.7324 142.997 78.2326C141.409 77.7622 138.616 77.821 137.146 78.3502ZM143.408 80.5845C144.584 81.3783 145.584 83.054 145.966 84.8768L146.172 85.8175L140.174 85.7587L134.206 85.6706L134.294 84.818C134.412 83.7008 135.294 82.0251 136.176 81.2019C138.028 79.438 141.262 79.1734 143.408 80.5845Z" fill="white"/>
<path d="M154.051 78.4384C152.316 79.3497 151.875 80.0553 151.757 82.1132C151.64 83.8478 151.699 84.0242 152.581 85.0237C153.374 85.9351 154.021 86.2585 156.814 87.1111C160.548 88.287 161.4 88.9338 161.4 90.5802C161.4 91.4033 161.194 91.8149 160.518 92.3735C158.843 93.7846 156.638 93.7552 153.521 92.2853L151.699 91.4327L151.258 92.0795C151.022 92.4323 150.817 92.8145 150.817 92.9321C150.817 93.0497 151.699 93.5495 152.757 94.0786C158.578 96.8421 164.575 94.1374 163.458 89.2572C163.017 87.1993 162.106 86.6113 157.314 85.2295C154.756 84.4652 153.757 83.642 153.757 82.172C153.757 79.7319 157.02 78.8794 160.636 80.3787C161.606 80.7609 162.429 81.0549 162.459 81.0255C162.488 80.9961 162.664 80.6433 162.87 80.2611C163.282 79.4379 163.194 79.3497 160.871 78.4678C158.813 77.7034 155.491 77.674 154.051 78.4384Z" fill="white"/>
<path d="M169.397 78.4678C167.192 79.4673 166.339 82.7012 167.692 84.7886C168.279 85.6999 169.779 86.4349 172.278 87.1111C176.041 88.14 177.511 89.6394 176.658 91.5209C175.629 93.7553 171.543 93.961 168.221 91.9325C167.692 91.6091 167.221 91.3739 167.162 91.4327C166.957 91.6679 166.398 92.8439 166.398 93.0203C166.398 93.1085 167.28 93.6083 168.397 94.1374C170.132 94.9606 170.69 95.0782 172.866 95.0782C175.071 95.0782 175.541 94.99 176.746 94.2844C178.393 93.2849 179.216 91.5797 178.951 89.5806C178.687 87.6403 177.393 86.6407 173.718 85.5235C170.073 84.377 168.867 83.4362 169.161 81.9075C169.514 80.2023 170.22 79.7907 172.807 79.7907C174.571 79.8201 175.335 79.9671 176.305 80.4669L177.54 81.1137L178.04 80.3787C178.657 79.4379 178.481 79.2322 176.276 78.4678C174.012 77.7034 171.102 77.7034 169.397 78.4678Z" fill="white"/>
<path fill-rule="evenodd" clip-rule="evenodd" d="M97.3339 0.629155C98.0654 1.52428 102.253 5.61132 104.561 7.68308C106.158 9.11637 106.168 9.14334 105.184 9.38187C104.634 9.51546 103.25 9.74304 102.108 9.88759C100.965 10.0321 98.8156 10.3196 97.3306 10.5261C95.8456 10.7326 93.1352 11.1038 91.3075 11.3512C53.9294 16.405 32.9973 21.1369 20.4605 27.3673C15.6537 29.756 13.2428 31.3987 11.236 33.6521C6.27218 39.2268 7.01489 45.0051 13.4924 51.2043C17.4972 55.0372 22.1079 57.9978 31.6755 62.8797L39.7519 67H71.8396C91.867 67 104.02 66.8483 104.174 66.5958C104.486 66.0842 97.2479 63.7786 73.0305 56.6732C42.1594 47.6163 33.7765 43.4993 33.7765 37.3944C33.7765 31.7161 43.8629 26.1671 63.4625 21.0631C69.5496 19.4777 88.2187 15.5799 95.669 14.3387C97.3825 14.0534 99.7805 13.6316 100.998 13.4015C105.42 12.5658 103.394 13.3454 97.6296 14.6978C71.6867 20.7829 58.183 24.6676 52.0448 27.8111C47.0672 30.3607 45.6121 34.0078 48.5344 36.6106C49.3402 37.3287 50.716 38.287 51.5916 38.7401C55.5116 40.7688 67.5977 43.5945 80.5074 45.5007C82.1067 45.7371 86.3968 46.397 90.0414 46.9681C93.6856 47.5391 96.7295 47.9429 96.8055 47.8657C96.8815 47.7886 94.5541 47.1244 91.6331 46.3899C84.3668 44.5617 76.4254 41.9118 73.5352 40.3503C69.4403 38.1383 67.6475 35.3657 68.6793 32.8387C70.3363 28.7799 78.3354 25.1152 98.4156 19.2147C104.365 17.4666 109.538 15.9179 109.911 15.7725C110.844 15.4088 111.023 16.4307 111.145 22.8272L111.246 28.1727L119.346 21.4314C123.801 17.7237 127.82 14.3699 128.277 13.978C128.734 13.5861 130.084 12.4343 131.278 11.4182C132.472 10.4022 133.359 9.42401 133.25 9.24448C133.066 8.94231 126.281 7.20012 106.261 2.31319C101.921 1.25372 97.9968 0.270516 97.5416 0.128915C96.7864 -0.106665 96.7686 -0.0628358 97.3339 0.629155ZM95.046 22.6397C77.8656 28.037 72.8228 30.7417 72.8228 34.5586C72.8228 37.3224 75.3072 39.1248 82.5844 41.6399C86.6199 43.0349 95.8996 45.5175 96.9152 45.4737C97.2579 45.4594 95.637 44.8095 93.313 44.0299C88.3628 42.3698 83.1888 40.014 81.3249 38.5719C79.7037 37.3173 78.8604 35.388 79.248 33.8207C79.913 31.1328 85.2752 27.5439 94.5957 23.5491C98.4895 21.8798 98.6785 21.4989 95.046 22.6397ZM44.3153 32.6533C42.326 36.3413 44.4175 39.8973 50.1648 42.597C56.1546 45.4109 63.799 47.2871 95.4613 53.7156C122.654 59.2368 132.992 61.6832 142.88 64.9358L147.929 66.5971L155.964 66.4825L164 66.3679L158.639 64.3547C141.343 57.8587 121.62 53.314 91.5152 48.8869C67.1594 45.3051 56.2456 43.01 50.716 40.3069C46.6361 38.3123 45.2831 36.8221 44.9949 34.0057C44.8021 32.124 44.7049 31.931 44.3153 32.6533Z" fill="white"/>
</svg>
